# xmcd
#
# Track frame offsets:
#	150
#	11991
#	18311
#	32193
#	45461
#	55482
#	81656
#	96343
#	103950
#	118926
#	129273
#	170469
#	192019
#	207501
#
# Disc length: 2872 seconds
#
# Revision: 1
# Processed by: cddbd v1.5.1PL0 Copyright (c) Steve Scherf et al.
# Submitted via: EasyCDDAExtractor 7.5.2.1
#
DISCID=ca0b360e
DTITLE=Grigore Lesea - Asteptand Craciunul
DYEAR=2004
DGENRE=
TTITLE0=Marie, Fata Dalba
TTITLE1=Tu, Sofica...
TTITLE2=O, Eva, Ma-nsalai
TTITLE3=Mandru Joaca Patru-n Rai
TTITLE4=Fluier
TTITLE5=Corinda-ma, Dalba Corinda
TTITLE6=Tri Pacurarei
TTITLE7=Peste Munti Si Peste Brazi
TTITLE8=Du-te Pasare Si Zboara
TTITLE9=Preumbla-se Maria
TTITLE10=O, Marie Frumos Nume
TTITLE11=Maica Sfanta Preacurata
TTITLE12=Pom Inramuratu
TTITLE13=Caval
EXTD=
EXTT0=
EXTT1=
EXTT2=
EXTT3=
EXTT4=
EXTT5=
EXTT6=
EXTT7=
EXTT8=
EXTT9=
EXTT10=
EXTT11=
EXTT12=
EXTT13=
PLAYORDER=
